<?xml version="1.0" encoding="UTF-8"?>
<svg width="18px" height="18px" viewBox="0 0 18 18" version="1.1" xmlns="http://www.w3.org/2000/svg" xmlns:xlink="http://www.w3.org/1999/xlink">
    <!-- Generator: Sketch 52.6 (67491) - http://www.bohemiancoding.com/sketch -->
    <title>Rectangle 2</title>
    <desc>Created with Sketch.</desc>
    <g id="Arena-App" stroke="none" stroke-width="1" fill="none" fill-rule="evenodd">
        <g id="stream-3" transform="translate(-739.000000, -33.000000)" fill="#080808" fill-rule="nonzero">
            <g id="header__wrap">
                <g id="Group-4-Copy" transform="translate(730.000000, 24.000000)">
                    <g id="Group-5" transform="translate(9.000000, 9.000000)">
                        <path d="M1,0 L3,0 C3.55228475,-1.01453063e-16 4,0.44771525 4,1 L4,3 C4,3.55228475 3.55228475,4 3,4 L1,4 C0.44771525,4 6.76353751e-17,3.55228475 0,3 L0,1 C-6.76353751e-17,0.44771525 0.44771525,1.01453063e-16 1,0 Z M1,7 L3,7 C3.55228475,7 4,7.44771525 4,8 L4,10 C4,10.5522847 3.55228475,11 3,11 L1,11 C0.44771525,11 6.76353751e-17,10.5522847 0,10 L0,8 C-6.76353751e-17,7.44771525 0.44771525,7 1,7 Z M8,0 L10,0 C10.5522847,-1.01453063e-16 11,0.44771525 11,1 L11,3 C11,3.55228475 10.5522847,4 10,4 L8,4 C7.44771525,4 7,3.55228475 7,3 L7,1 C7,0.44771525 7.44771525,1.01453063e-16 8,0 Z M8,7 L10,7 C10.5522847,7 11,7.44771525 11,8 L11,10 C11,10.5522847 10.5522847,11 10,11 L8,11 C7.44771525,11 7,10.5522847 7,10 L7,8 C7,7.44771525 7.44771525,7 8,7 Z M15,0 L17,0 C17.5522847,-1.01453063e-16 18,0.44771525 18,1 L18,3 C18,3.55228475 17.5522847,4 17,4 L15,4 C14.4477153,4 14,3.55228475 14,3 L14,1 C14,0.44771525 14.4477153,1.01453063e-16 15,0 Z M15,7 L17,7 C17.5522847,7 18,7.44771525 18,8 L18,10 C18,10.5522847 17.5522847,11 17,11 L15,11 C14.4477153,11 14,10.5522847 14,10 L14,8 C14,7.44771525 14.4477153,7 15,7 Z M1,14 L3,14 C3.55228475,14 4,14.4477153 4,15 L4,17 C4,17.5522847 3.55228475,18 3,18 L1,18 C0.44771525,18 6.76353751e-17,17.5522847 0,17 L0,15 C-6.76353751e-17,14.4477153 0.44771525,14 1,14 Z M8,14 L10,14 C10.5522847,14 11,14.4477153 11,15 L11,17 C11,17.5522847 10.5522847,18 10,18 L8,18 C7.44771525,18 7,17.5522847 7,17 L7,15 C7,14.4477153 7.44771525,14 8,14 Z M15,14 L17,14 C17.5522847,14 18,14.4477153 18,15 L18,17 C18,17.5522847 17.5522847,18 17,18 L15,18 C14.4477153,18 14,17.5522847 14,17 L14,15 C14,14.4477153 14.4477153,14 15,14 Z" id="Rectangle-2"></path>
                    </g>
                </g>
            </g>
        </g>
    </g>
</svg>