<?xml version="1.0" encoding="UTF-8"?>
<svg width="60px" height="60px" viewBox="0 0 60 60" version="1.1" xmlns="http://www.w3.org/2000/svg" xmlns:xlink="http://www.w3.org/1999/xlink">
    <!-- Generator: Sketch 52.6 (67491) - http://www.bohemiancoding.com/sketch -->
    <title>Rectangle Copy 44</title>
    <desc>Created with Sketch.</desc>
    <g id="Arena-App" stroke="none" stroke-width="1" fill="none" fill-rule="evenodd">
        <g id="stream" transform="translate(-48.000000, -648.000000)" fill="#FFFFFF" fill-rule="nonzero">
            <g id="side-bar" transform="translate(0.000000, 83.000000)">
                <g id="Group" transform="translate(48.000000, 313.000000)">
                    <path d="M0,273 L17,273 L17,291 L0,291 L0,273 Z M0,252 L17,252 L17,269 L0,269 L0,252 Z M0,295 L12,295 L12,312 L0,312 L0,295 Z M16,295 L28,295 L28,312 L16,312 L16,295 Z M32,295 L44,295 L44,312 L32,312 L32,295 Z M48,295 L60,295 L60,312 L48,312 L48,295 Z M21,273 L39,273 L39,291 L21,291 L21,273 Z M21,252 L39,252 L39,269 L21,269 L21,252 Z M43,273 L60,273 L60,291 L43,291 L43,273 Z M43,252 L60,252 L60,269 L43,269 L43,252 Z" id="Rectangle-Copy-44"></path>
                </g>
            </g>
        </g>
    </g>
</svg>