<?xml version="1.0" encoding="UTF-8"?>
<svg width="60px" height="60px" viewBox="0 0 60 60" version="1.1" xmlns="http://www.w3.org/2000/svg" xmlns:xlink="http://www.w3.org/1999/xlink">
    <!-- Generator: Sketch 52.6 (67491) - http://www.bohemiancoding.com/sketch -->
    <title>grid-8</title>
    <desc>Created with Sketch.</desc>
    <g id="Arena-App" stroke="none" stroke-width="1" fill="none" fill-rule="evenodd">
        <g id="stream" transform="translate(-120.000000, -576.000000)" fill="#FFFFFF" fill-rule="nonzero">
            <g id="side-bar" transform="translate(0.000000, 83.000000)">
                <g id="Group" transform="translate(48.000000, 313.000000)">
                    <path d="M72,180 L100,180 L100,197 L72,197 L72,180 Z M72,201 L89,201 L89,219 L72,219 L72,201 Z M72,223 L89,223 L89,240 L72,240 L72,223 Z M93,201 L111,201 L111,219 L93,219 L93,201 Z M93,223 L111,223 L111,240 L93,240 L93,223 Z M115,201 L132,201 L132,219 L115,219 L115,201 Z M115,223 L132,223 L132,240 L115,240 L115,223 Z M104,180 L132,180 L132,197 L104,197 L104,180 Z" id="grid-8"></path>
                </g>
            </g>
        </g>
    </g>
</svg>