<?xml version="1.0" encoding="UTF-8"?>
<svg width="60px" height="60px" viewBox="0 0 60 60" version="1.1" xmlns="http://www.w3.org/2000/svg" xmlns:xlink="http://www.w3.org/1999/xlink">
    <!-- Generator: Sketch 52.6 (67491) - http://www.bohemiancoding.com/sketch -->
    <title>grid-6</title>
    <desc>Created with Sketch.</desc>
    <g id="Arena-App" stroke="none" stroke-width="1" fill="none" fill-rule="evenodd">
        <g id="stream" transform="translate(-192.000000, -504.000000)" fill="#FFFFFF" fill-rule="nonzero">
            <g id="side-bar" transform="translate(0.000000, 83.000000)">
                <g id="Group" transform="translate(48.000000, 313.000000)">
                    <path d="M144,108 L161,108 L161,136 L144,136 L144,108 Z M144,140 L161,140 L161,168 L144,168 L144,140 Z M165,108 L183,108 L183,136 L165,136 L165,108 Z M165,140 L183,140 L183,168 L165,168 L165,140 Z M187,108 L204,108 L204,136 L187,136 L187,108 Z M187,140 L204,140 L204,168 L187,168 L187,140 Z" id="grid-6"></path>
                </g>
            </g>
        </g>
    </g>
</svg>