<?xml version="1.0" encoding="UTF-8"?>
<svg width="17px" height="24px" viewBox="0 0 17 24" version="1.1" xmlns="http://www.w3.org/2000/svg" xmlns:xlink="http://www.w3.org/1999/xlink">
    <!-- Generator: Sketch 52.6 (67491) - http://www.bohemiancoding.com/sketch -->
    <title>Shape</title>
    <desc>Created with Sketch.</desc>
    <g id="Arena-App" stroke="none" stroke-width="1" fill="none" fill-rule="evenodd">
        <g id="stream" transform="translate(-769.000000, -344.000000)" fill="#000000" fill-rule="nonzero">
            <g id="Group-6-Copy" transform="translate(754.000000, 120.000000)">
                <g id="Group-2-Copy-2" transform="translate(0.000000, 212.000000)">
                    <g id="microphone-solid" transform="translate(15.000000, 12.000000)">
                        <path d="M8.75,16.5 C11.2353125,16.5 13.25,14.4853125 13.25,12 L13.25,4.5 C13.25,2.0146875 11.2353125,0 8.75,0 C6.2646875,0 4.25,2.0146875 4.25,4.5 L4.25,12 C4.25,14.4853125 6.2646875,16.5 8.75,16.5 Z M16.25,9 L15.5,9 C15.085625,9 14.75,9.335625 14.75,9.75 L14.75,12 C14.75,15.50625 11.7270312,18.3196875 8.15046875,17.9709375 C5.03328125,17.6667188 2.75,14.8645313 2.75,11.7328125 L2.75,9.75 C2.75,9.335625 2.414375,9 2,9 L1.25,9 C0.835625,9 0.5,9.335625 0.5,9.75 L0.5,11.6325 C0.5,15.834375 3.49859375,19.5801563 7.625,20.1492188 L7.625,21.75 L5,21.75 C4.585625,21.75 4.25,22.085625 4.25,22.5 L4.25,23.25 C4.25,23.664375 4.585625,24 5,24 L12.5,24 C12.914375,24 13.25,23.664375 13.25,23.25 L13.25,22.5 C13.25,22.085625 12.914375,21.75 12.5,21.75 L9.875,21.75 L9.875,20.1670313 C13.8926562,19.6157813 17,16.1671875 17,12 L17,9.75 C17,9.335625 16.664375,9 16.25,9 Z" id="Shape"></path>
                    </g>
                </g>
            </g>
        </g>
    </g>
</svg>